G04 start of page 10 for group -4015 idx -4015 *
G04 Title: (unknown), toppaste *
G04 Creator: pcb 20110918 *
G04 CreationDate: Sun 25 Aug 2013 03:10:13 AM GMT UTC *
G04 For: railfan *
G04 Format: Gerber/RS-274X *
G04 PCB-Dimensions: 85000 48000 *
G04 PCB-Coordinate-Origin: lower left *
%MOIN*%
%FSLAX25Y25*%
%LNTOPPASTE*%
%ADD53R,0.0360X0.0360*%
%ADD52R,0.0230X0.0230*%
%ADD51R,0.0512X0.0512*%
%ADD50C,0.0001*%
%ADD49R,0.0142X0.0142*%
%ADD48R,0.0240X0.0240*%
%ADD47R,0.0098X0.0098*%
G54D47*X36429Y37028D02*Y35256D01*
X34460Y37028D02*Y35256D01*
X32492Y37028D02*Y35256D01*
X30524Y37028D02*Y35256D01*
X28555Y37028D02*Y35256D01*
Y29744D02*Y27972D01*
X30524Y29744D02*Y27972D01*
X32492Y29744D02*Y27972D01*
X34460Y29744D02*Y27972D01*
X36429Y29744D02*Y27972D01*
G54D48*X29362Y32500D02*X34638D01*
G54D49*X28870Y32008D02*X36114D01*
G54D50*G36*
X34754Y32617D02*X35838Y33701D01*
X36822Y32717D01*
X35738Y31633D01*
X34754Y32617D01*
G37*
G54D51*X18607Y38543D02*X19393D01*
X18607Y31457D02*X19393D01*
G54D52*X80200Y34700D02*Y13300D01*
X74600Y34700D02*X80200D01*
X74600Y13300D02*X80200D01*
X58800Y34700D02*Y13300D01*
Y34700D02*X64400D01*
X58800Y13300D02*X64400D01*
G54D50*G36*
X75577Y35671D02*X81171Y30077D01*
X79050Y27956D01*
X73456Y33550D01*
X75577Y35671D01*
G37*
G36*
X73456Y14450D02*X79050Y20044D01*
X81171Y17923D01*
X75577Y12329D01*
X73456Y14450D01*
G37*
G36*
X57829Y30077D02*X63423Y35671D01*
X65544Y33550D01*
X59950Y27956D01*
X57829Y30077D01*
G37*
G36*
X59950Y20044D02*X65544Y14450D01*
X63423Y12329D01*
X57829Y17923D01*
X59950Y20044D01*
G37*
G36*
X77250Y35350D02*Y31750D01*
X80850D01*
Y35350D01*
X77250D01*
G37*
G36*
Y16250D02*Y12650D01*
X80850D01*
Y16250D01*
X77250D01*
G37*
G36*
X58150Y35350D02*Y31750D01*
X61750D01*
Y35350D01*
X58150D01*
G37*
G36*
Y16250D02*Y12650D01*
X61750D01*
Y16250D01*
X58150D01*
G37*
G54D51*X28607Y10457D02*X29393D01*
X28607Y17543D02*X29393D01*
X18607Y10457D02*X19393D01*
X18607Y17543D02*X19393D01*
X46107Y14543D02*X46893D01*
X46107Y7457D02*X46893D01*
G54D53*X46900Y22600D02*X48100D01*
X46900Y35500D02*X48100D01*
M02*
