G04 start of page 2 for group 0 idx 0 *
G04 Title: (unknown), component *
G04 Creator: pcb 20110918 *
G04 CreationDate: Sun 25 Aug 2013 03:10:13 AM GMT UTC *
G04 For: railfan *
G04 Format: Gerber/RS-274X *
G04 PCB-Dimensions: 85000 48000 *
G04 PCB-Coordinate-Origin: lower left *
%MOIN*%
%FSLAX25Y25*%
%LNTOP*%
%ADD22C,0.0380*%
%ADD21C,0.0360*%
%ADD20R,0.0142X0.0142*%
%ADD19R,0.0240X0.0240*%
%ADD18R,0.0360X0.0360*%
%ADD17R,0.0512X0.0512*%
%ADD16R,0.0230X0.0230*%
%ADD15R,0.0098X0.0098*%
%ADD14C,0.0600*%
%ADD13C,0.0200*%
%ADD12C,0.0100*%
%ADD11C,0.0001*%
G54D11*G36*
X11250Y47000D02*X24000D01*
Y41865D01*
X23849Y41772D01*
X23514Y41486D01*
X23228Y41151D01*
X22997Y40775D01*
X22829Y40368D01*
X22726Y39939D01*
X22691Y39500D01*
X22726Y39061D01*
X22829Y38632D01*
X22997Y38225D01*
X23228Y37849D01*
X23514Y37514D01*
X23849Y37228D01*
X24000Y37135D01*
Y35000D01*
X11250D01*
Y36748D01*
X11368Y36757D01*
X11482Y36785D01*
X11592Y36830D01*
X11692Y36891D01*
X11782Y36968D01*
X11859Y37058D01*
X11920Y37158D01*
X11965Y37268D01*
X11993Y37382D01*
X12000Y37500D01*
Y40500D01*
X11993Y40618D01*
X11965Y40732D01*
X11920Y40842D01*
X11859Y40942D01*
X11782Y41032D01*
X11692Y41109D01*
X11592Y41170D01*
X11482Y41215D01*
X11368Y41243D01*
X11250Y41252D01*
Y47000D01*
G37*
G36*
X7500D02*X11250D01*
Y41252D01*
X11132Y41243D01*
X11018Y41215D01*
X10908Y41170D01*
X10808Y41109D01*
X10718Y41032D01*
X10641Y40942D01*
X10580Y40842D01*
X10535Y40732D01*
X10507Y40618D01*
X10500Y40500D01*
Y37500D01*
X10507Y37382D01*
X10535Y37268D01*
X10580Y37158D01*
X10641Y37058D01*
X10718Y36968D01*
X10808Y36891D01*
X10908Y36830D01*
X11018Y36785D01*
X11132Y36757D01*
X11250Y36748D01*
Y35000D01*
X9708D01*
X9715Y35018D01*
X9743Y35132D01*
X9752Y35250D01*
X9743Y35368D01*
X9715Y35482D01*
X9670Y35592D01*
X9609Y35692D01*
X9532Y35782D01*
X9442Y35859D01*
X9342Y35920D01*
X9232Y35965D01*
X9118Y35993D01*
X9000Y36000D01*
X7500D01*
Y42000D01*
X9000D01*
X9118Y42007D01*
X9232Y42035D01*
X9342Y42080D01*
X9442Y42141D01*
X9532Y42218D01*
X9609Y42308D01*
X9670Y42408D01*
X9715Y42518D01*
X9743Y42632D01*
X9752Y42750D01*
X9743Y42868D01*
X9715Y42982D01*
X9670Y43092D01*
X9609Y43192D01*
X9532Y43282D01*
X9442Y43359D01*
X9342Y43420D01*
X9232Y43465D01*
X9118Y43493D01*
X9000Y43500D01*
X7500D01*
Y47000D01*
G37*
G36*
X3750D02*X7500D01*
Y43500D01*
X6000D01*
X5882Y43493D01*
X5768Y43465D01*
X5658Y43420D01*
X5558Y43359D01*
X5468Y43282D01*
X5391Y43192D01*
X5330Y43092D01*
X5285Y42982D01*
X5257Y42868D01*
X5248Y42750D01*
X5257Y42632D01*
X5285Y42518D01*
X5330Y42408D01*
X5391Y42308D01*
X5468Y42218D01*
X5558Y42141D01*
X5658Y42080D01*
X5768Y42035D01*
X5882Y42007D01*
X6000Y42000D01*
X7500D01*
Y36000D01*
X6000D01*
X5882Y35993D01*
X5768Y35965D01*
X5658Y35920D01*
X5558Y35859D01*
X5468Y35782D01*
X5391Y35692D01*
X5330Y35592D01*
X5285Y35482D01*
X5257Y35368D01*
X5248Y35250D01*
X5257Y35132D01*
X5285Y35018D01*
X5292Y35000D01*
X3750D01*
Y36748D01*
X3868Y36757D01*
X3982Y36785D01*
X4092Y36830D01*
X4192Y36891D01*
X4282Y36968D01*
X4359Y37058D01*
X4420Y37158D01*
X4465Y37268D01*
X4493Y37382D01*
X4500Y37500D01*
Y40500D01*
X4493Y40618D01*
X4465Y40732D01*
X4420Y40842D01*
X4359Y40942D01*
X4282Y41032D01*
X4192Y41109D01*
X4092Y41170D01*
X3982Y41215D01*
X3868Y41243D01*
X3750Y41252D01*
Y47000D01*
G37*
G36*
X1000D02*X3750D01*
Y41252D01*
X3632Y41243D01*
X3518Y41215D01*
X3408Y41170D01*
X3308Y41109D01*
X3218Y41032D01*
X3141Y40942D01*
X3080Y40842D01*
X3035Y40732D01*
X3007Y40618D01*
X3000Y40500D01*
Y37500D01*
X3007Y37382D01*
X3035Y37268D01*
X3080Y37158D01*
X3141Y37058D01*
X3218Y36968D01*
X3308Y36891D01*
X3408Y36830D01*
X3518Y36785D01*
X3632Y36757D01*
X3750Y36748D01*
Y35000D01*
X1000D01*
Y47000D01*
G37*
G36*
X32000Y15000D02*X26000D01*
Y26500D01*
X32000D01*
Y15000D01*
G37*
G36*
X16000Y34000D02*X26500D01*
Y30358D01*
X25417D01*
X25358Y30363D01*
X25123Y30344D01*
X24893Y30289D01*
X24675Y30199D01*
X24474Y30075D01*
X24473Y30075D01*
X24294Y29922D01*
X24256Y29877D01*
X22981Y28602D01*
X22936Y28564D01*
X22783Y28384D01*
X22659Y28183D01*
X22569Y27965D01*
X22514Y27735D01*
X22514Y27735D01*
X22495Y27500D01*
X22500Y27441D01*
Y15000D01*
X16000D01*
Y34000D01*
G37*
G36*
X11113Y24500D02*X22500D01*
Y15000D01*
X11113D01*
Y16853D01*
X11156Y16860D01*
X11268Y16897D01*
X11373Y16952D01*
X11468Y17022D01*
X11551Y17106D01*
X11619Y17202D01*
X11670Y17308D01*
X11818Y17716D01*
X11922Y18137D01*
X11984Y18567D01*
X12005Y19000D01*
X11984Y19433D01*
X11922Y19863D01*
X11818Y20284D01*
X11675Y20694D01*
X11622Y20800D01*
X11553Y20896D01*
X11470Y20981D01*
X11375Y21051D01*
X11269Y21106D01*
X11157Y21143D01*
X11113Y21151D01*
Y24500D01*
G37*
G36*
X7498Y24486D02*X7500Y24486D01*
X7676Y24500D01*
X11113D01*
Y21151D01*
X11040Y21163D01*
X10921Y21164D01*
X10804Y21146D01*
X10691Y21110D01*
X10585Y21057D01*
X10488Y20988D01*
X10404Y20905D01*
X10333Y20809D01*
X10279Y20704D01*
X10241Y20592D01*
X10222Y20475D01*
X10221Y20356D01*
X10239Y20239D01*
X10277Y20126D01*
X10376Y19855D01*
X10444Y19575D01*
X10486Y19289D01*
X10500Y19000D01*
X10486Y18711D01*
X10444Y18425D01*
X10376Y18145D01*
X10280Y17872D01*
X10242Y17761D01*
X10225Y17644D01*
X10225Y17526D01*
X10245Y17409D01*
X10282Y17297D01*
X10336Y17193D01*
X10406Y17098D01*
X10491Y17015D01*
X10587Y16946D01*
X10692Y16893D01*
X10805Y16857D01*
X10921Y16840D01*
X11039Y16841D01*
X11113Y16853D01*
Y15000D01*
X9450D01*
X9481Y15030D01*
X9551Y15125D01*
X9606Y15231D01*
X9643Y15343D01*
X9663Y15460D01*
X9664Y15579D01*
X9646Y15696D01*
X9610Y15809D01*
X9557Y15915D01*
X9488Y16012D01*
X9405Y16096D01*
X9309Y16167D01*
X9204Y16221D01*
X9092Y16259D01*
X8975Y16278D01*
X8856Y16279D01*
X8739Y16261D01*
X8626Y16223D01*
X8355Y16124D01*
X8075Y16056D01*
X7789Y16014D01*
X7500Y16000D01*
X7498Y16000D01*
Y22000D01*
X7500Y22000D01*
X7789Y21986D01*
X8075Y21944D01*
X8355Y21876D01*
X8628Y21780D01*
X8739Y21742D01*
X8856Y21725D01*
X8974Y21725D01*
X9091Y21745D01*
X9203Y21782D01*
X9307Y21836D01*
X9402Y21906D01*
X9485Y21991D01*
X9554Y22087D01*
X9607Y22192D01*
X9643Y22305D01*
X9660Y22421D01*
X9659Y22539D01*
X9640Y22656D01*
X9603Y22768D01*
X9548Y22873D01*
X9478Y22968D01*
X9394Y23051D01*
X9298Y23119D01*
X9192Y23170D01*
X8784Y23318D01*
X8363Y23422D01*
X7933Y23484D01*
X7500Y23505D01*
X7498Y23505D01*
Y24486D01*
G37*
G36*
X3887Y24500D02*X7324D01*
X7498Y24486D01*
Y23505D01*
X7067Y23484D01*
X6637Y23422D01*
X6216Y23318D01*
X5806Y23175D01*
X5700Y23122D01*
X5604Y23053D01*
X5519Y22970D01*
X5449Y22875D01*
X5394Y22769D01*
X5357Y22657D01*
X5337Y22540D01*
X5336Y22421D01*
X5354Y22304D01*
X5390Y22191D01*
X5443Y22085D01*
X5512Y21988D01*
X5595Y21904D01*
X5691Y21833D01*
X5796Y21779D01*
X5908Y21741D01*
X6025Y21722D01*
X6144Y21721D01*
X6261Y21739D01*
X6374Y21777D01*
X6645Y21876D01*
X6925Y21944D01*
X7211Y21986D01*
X7498Y22000D01*
Y16000D01*
X7211Y16014D01*
X6925Y16056D01*
X6645Y16124D01*
X6372Y16220D01*
X6261Y16258D01*
X6144Y16275D01*
X6026Y16275D01*
X5909Y16255D01*
X5797Y16218D01*
X5693Y16164D01*
X5598Y16094D01*
X5515Y16009D01*
X5446Y15913D01*
X5393Y15808D01*
X5357Y15695D01*
X5340Y15579D01*
X5341Y15461D01*
X5360Y15344D01*
X5397Y15232D01*
X5452Y15127D01*
X5522Y15032D01*
X5555Y15000D01*
X3887D01*
Y16849D01*
X3960Y16837D01*
X4079Y16836D01*
X4196Y16854D01*
X4309Y16890D01*
X4415Y16943D01*
X4512Y17012D01*
X4596Y17095D01*
X4667Y17191D01*
X4721Y17296D01*
X4759Y17408D01*
X4778Y17525D01*
X4779Y17644D01*
X4761Y17761D01*
X4723Y17874D01*
X4624Y18145D01*
X4556Y18425D01*
X4514Y18711D01*
X4500Y19000D01*
X4514Y19289D01*
X4556Y19575D01*
X4624Y19855D01*
X4720Y20128D01*
X4758Y20239D01*
X4775Y20356D01*
X4775Y20474D01*
X4755Y20591D01*
X4718Y20703D01*
X4664Y20807D01*
X4594Y20902D01*
X4509Y20985D01*
X4413Y21054D01*
X4308Y21107D01*
X4195Y21143D01*
X4079Y21160D01*
X3961Y21159D01*
X3887Y21147D01*
Y24500D01*
G37*
G36*
X1000D02*X3887D01*
Y21147D01*
X3844Y21140D01*
X3732Y21103D01*
X3627Y21048D01*
X3532Y20978D01*
X3449Y20894D01*
X3381Y20798D01*
X3330Y20692D01*
X3182Y20284D01*
X3078Y19863D01*
X3016Y19433D01*
X2995Y19000D01*
X3016Y18567D01*
X3078Y18137D01*
X3182Y17716D01*
X3325Y17306D01*
X3378Y17200D01*
X3447Y17104D01*
X3530Y17019D01*
X3625Y16949D01*
X3731Y16894D01*
X3843Y16857D01*
X3887Y16849D01*
Y15000D01*
X1000D01*
Y24500D01*
G37*
G36*
X12000Y23500D02*X17000Y28500D01*
Y23500D01*
X12000D01*
G37*
G36*
X11113Y13000D02*X22500D01*
Y12059D01*
X22495Y12000D01*
X22514Y11765D01*
X22569Y11535D01*
X22659Y11317D01*
X22783Y11116D01*
X22936Y10936D01*
X22981Y10898D01*
X24398Y9481D01*
X24436Y9436D01*
X24616Y9283D01*
X24817Y9159D01*
X25035Y9069D01*
X25055Y9064D01*
X25057Y7741D01*
X25094Y7588D01*
X25154Y7443D01*
X25236Y7308D01*
X25339Y7189D01*
X25458Y7086D01*
X25593Y7004D01*
X25738Y6944D01*
X25891Y6907D01*
X26048Y6898D01*
X32109Y6907D01*
X32262Y6944D01*
X32407Y7004D01*
X32542Y7086D01*
X32661Y7189D01*
X32764Y7308D01*
X32846Y7443D01*
X32906Y7588D01*
X32943Y7741D01*
X32952Y7898D01*
X32943Y13000D01*
X42000D01*
Y1000D01*
X11113D01*
Y6853D01*
X11156Y6860D01*
X11268Y6897D01*
X11373Y6952D01*
X11468Y7022D01*
X11551Y7106D01*
X11619Y7202D01*
X11670Y7308D01*
X11818Y7716D01*
X11922Y8137D01*
X11984Y8567D01*
X12005Y9000D01*
X11984Y9433D01*
X11922Y9863D01*
X11818Y10284D01*
X11675Y10694D01*
X11622Y10800D01*
X11553Y10896D01*
X11470Y10981D01*
X11375Y11051D01*
X11269Y11106D01*
X11157Y11143D01*
X11113Y11151D01*
Y13000D01*
G37*
G36*
X7502Y12000D02*X7789Y11986D01*
X8075Y11944D01*
X8355Y11876D01*
X8628Y11780D01*
X8739Y11742D01*
X8856Y11725D01*
X8974Y11725D01*
X9091Y11745D01*
X9203Y11782D01*
X9307Y11836D01*
X9402Y11906D01*
X9485Y11991D01*
X9554Y12087D01*
X9607Y12192D01*
X9643Y12305D01*
X9660Y12421D01*
X9659Y12539D01*
X9640Y12656D01*
X9603Y12768D01*
X9548Y12873D01*
X9478Y12968D01*
X9445Y13000D01*
X11113D01*
Y11151D01*
X11040Y11163D01*
X10921Y11164D01*
X10804Y11146D01*
X10691Y11110D01*
X10585Y11057D01*
X10488Y10988D01*
X10404Y10905D01*
X10333Y10809D01*
X10279Y10704D01*
X10241Y10592D01*
X10222Y10475D01*
X10221Y10356D01*
X10239Y10239D01*
X10277Y10126D01*
X10376Y9855D01*
X10444Y9575D01*
X10486Y9289D01*
X10500Y9000D01*
X10486Y8711D01*
X10444Y8425D01*
X10376Y8145D01*
X10280Y7872D01*
X10242Y7761D01*
X10225Y7644D01*
X10225Y7526D01*
X10245Y7409D01*
X10282Y7297D01*
X10336Y7193D01*
X10406Y7098D01*
X10491Y7015D01*
X10587Y6946D01*
X10692Y6893D01*
X10805Y6857D01*
X10921Y6840D01*
X11039Y6841D01*
X11113Y6853D01*
Y1000D01*
X7502D01*
Y4495D01*
X7933Y4516D01*
X8363Y4578D01*
X8784Y4682D01*
X9194Y4825D01*
X9300Y4878D01*
X9396Y4947D01*
X9481Y5030D01*
X9551Y5125D01*
X9606Y5231D01*
X9643Y5343D01*
X9663Y5460D01*
X9664Y5579D01*
X9646Y5696D01*
X9610Y5809D01*
X9557Y5915D01*
X9488Y6012D01*
X9405Y6096D01*
X9309Y6167D01*
X9204Y6221D01*
X9092Y6259D01*
X8975Y6278D01*
X8856Y6279D01*
X8739Y6261D01*
X8626Y6223D01*
X8355Y6124D01*
X8075Y6056D01*
X7789Y6014D01*
X7502Y6000D01*
Y12000D01*
G37*
G36*
X3887Y13000D02*X5550D01*
X5519Y12970D01*
X5449Y12875D01*
X5394Y12769D01*
X5357Y12657D01*
X5337Y12540D01*
X5336Y12421D01*
X5354Y12304D01*
X5390Y12191D01*
X5443Y12085D01*
X5512Y11988D01*
X5595Y11904D01*
X5691Y11833D01*
X5796Y11779D01*
X5908Y11741D01*
X6025Y11722D01*
X6144Y11721D01*
X6261Y11739D01*
X6374Y11777D01*
X6645Y11876D01*
X6925Y11944D01*
X7211Y11986D01*
X7500Y12000D01*
X7502Y12000D01*
Y6000D01*
X7500Y6000D01*
X7211Y6014D01*
X6925Y6056D01*
X6645Y6124D01*
X6372Y6220D01*
X6261Y6258D01*
X6144Y6275D01*
X6026Y6275D01*
X5909Y6255D01*
X5797Y6218D01*
X5693Y6164D01*
X5598Y6094D01*
X5515Y6009D01*
X5446Y5913D01*
X5393Y5808D01*
X5357Y5695D01*
X5340Y5579D01*
X5341Y5461D01*
X5360Y5344D01*
X5397Y5232D01*
X5452Y5127D01*
X5522Y5032D01*
X5606Y4949D01*
X5702Y4881D01*
X5808Y4830D01*
X6216Y4682D01*
X6637Y4578D01*
X7067Y4516D01*
X7500Y4495D01*
X7502Y4495D01*
Y1000D01*
X3887D01*
Y6849D01*
X3960Y6837D01*
X4079Y6836D01*
X4196Y6854D01*
X4309Y6890D01*
X4415Y6943D01*
X4512Y7012D01*
X4596Y7095D01*
X4667Y7191D01*
X4721Y7296D01*
X4759Y7408D01*
X4778Y7525D01*
X4779Y7644D01*
X4761Y7761D01*
X4723Y7874D01*
X4624Y8145D01*
X4556Y8425D01*
X4514Y8711D01*
X4500Y9000D01*
X4514Y9289D01*
X4556Y9575D01*
X4624Y9855D01*
X4720Y10128D01*
X4758Y10239D01*
X4775Y10356D01*
X4775Y10474D01*
X4755Y10591D01*
X4718Y10703D01*
X4664Y10807D01*
X4594Y10902D01*
X4509Y10985D01*
X4413Y11054D01*
X4308Y11107D01*
X4195Y11143D01*
X4079Y11160D01*
X3961Y11159D01*
X3887Y11147D01*
Y13000D01*
G37*
G36*
X1000D02*X3887D01*
Y11147D01*
X3844Y11140D01*
X3732Y11103D01*
X3627Y11048D01*
X3532Y10978D01*
X3449Y10894D01*
X3381Y10798D01*
X3330Y10692D01*
X3182Y10284D01*
X3078Y9863D01*
X3016Y9433D01*
X2995Y9000D01*
X3016Y8567D01*
X3078Y8137D01*
X3182Y7716D01*
X3325Y7306D01*
X3378Y7200D01*
X3447Y7104D01*
X3530Y7019D01*
X3625Y6949D01*
X3731Y6894D01*
X3843Y6857D01*
X3887Y6849D01*
Y1000D01*
X1000D01*
Y13000D01*
G37*
G36*
X42000Y1000D02*X32000D01*
Y6907D01*
X32109Y6907D01*
X32262Y6944D01*
X32407Y7004D01*
X32542Y7086D01*
X32661Y7189D01*
X32764Y7308D01*
X32846Y7443D01*
X32906Y7588D01*
X32943Y7741D01*
X32952Y7898D01*
X32943Y13173D01*
X32906Y13326D01*
X32846Y13471D01*
X32764Y13606D01*
X32661Y13725D01*
X32542Y13828D01*
X32407Y13910D01*
X32262Y13970D01*
X32109Y14007D01*
X32000Y14013D01*
Y20000D01*
X42000D01*
Y1000D01*
G37*
G36*
X50000Y26500D02*Y12000D01*
X43500D01*
Y26500D01*
X50000D01*
G37*
G36*
X26000Y20000D02*X42000D01*
Y13500D01*
X32828D01*
X32764Y13606D01*
X32661Y13725D01*
X32542Y13828D01*
X32407Y13910D01*
X32262Y13970D01*
X32109Y14007D01*
X31952Y14016D01*
X26000Y14007D01*
Y20000D01*
G37*
G36*
X31000Y22500D02*X34500Y19000D01*
X31000D01*
Y22500D01*
G37*
G36*
X33000Y26500D02*X50000D01*
Y21500D01*
X34000D01*
X33000Y22500D01*
Y26500D01*
G37*
G36*
X50000D01*
Y21500D01*
X34000D01*
X33000Y22500D01*
Y26500D01*
G37*
G36*
X20500Y47000D02*X84000D01*
Y38500D01*
X30055D01*
Y38886D01*
X30060Y38945D01*
X30041Y39180D01*
X29986Y39410D01*
X29896Y39628D01*
X29772Y39829D01*
X29619Y40009D01*
X29574Y40047D01*
X29102Y40519D01*
X29064Y40564D01*
X28884Y40717D01*
X28683Y40841D01*
X28465Y40931D01*
X28235Y40986D01*
X28235Y40986D01*
X28000Y41005D01*
X27941Y41000D01*
X27865D01*
X27772Y41151D01*
X27486Y41486D01*
X27151Y41772D01*
X26775Y42003D01*
X26368Y42171D01*
X25939Y42274D01*
X25500Y42309D01*
X25061Y42274D01*
X24632Y42171D01*
X24225Y42003D01*
X23849Y41772D01*
X23514Y41486D01*
X23228Y41151D01*
X22997Y40775D01*
X22829Y40368D01*
X22726Y39939D01*
X22691Y39500D01*
X22726Y39061D01*
X22829Y38632D01*
X22884Y38500D01*
X20500D01*
Y47000D01*
G37*
G36*
X73500D02*X84000D01*
Y34000D01*
X73500D01*
Y47000D01*
G37*
G36*
X84000Y37000D02*Y12000D01*
X79500D01*
Y37000D01*
X84000D01*
G37*
G36*
X39500Y28000D02*Y37000D01*
X59500D01*
Y28000D01*
X39500D01*
G37*
G36*
X38000D02*Y30000D01*
X39500Y31500D01*
X40500D01*
Y28000D01*
X38000D01*
G37*
G36*
X53500Y37000D02*X59500D01*
Y11000D01*
X53500D01*
Y37000D01*
G37*
G36*
X43500Y10000D02*X70500D01*
Y1500D01*
X43500D01*
Y10000D01*
G37*
G54D12*X30524Y36142D02*Y40000D01*
X32492Y36142D02*Y40000D01*
X28555Y36142D02*Y38945D01*
X28000Y39500D01*
X25500D01*
X32492Y28858D02*X34460D01*
X36429D02*X42000D01*
X34460D02*Y25000D01*
X30524Y28858D02*Y24500D01*
X36429Y36142D02*X34460D01*
Y32500D01*
X28555Y28858D02*X25358D01*
X24000Y27500D01*
G54D13*X30000Y32500D02*X19000D01*
G54D12*X24000Y27500D02*Y12000D01*
X25500Y10500D01*
X29000D01*
G54D11*G36*
X4500Y42000D02*Y36000D01*
X10500D01*
Y42000D01*
X4500D01*
G37*
G54D14*X7500Y29000D03*
Y19000D03*
Y9000D03*
G54D15*X36429Y29744D02*Y27972D01*
G54D16*X58800Y34700D02*X64400D01*
G54D11*G36*
X57950Y35550D02*Y31550D01*
X61950D01*
Y35550D01*
X57950D01*
G37*
G36*
X57829Y30077D02*X63423Y35671D01*
X65544Y33550D01*
X59950Y27956D01*
X57829Y30077D01*
G37*
G36*
X59950Y20044D02*X65544Y14450D01*
X63423Y12329D01*
X57829Y17923D01*
X59950Y20044D01*
G37*
G54D16*X58800Y34700D02*Y13300D01*
X64400D01*
G54D11*G36*
X57950Y16450D02*Y12450D01*
X61950D01*
Y16450D01*
X57950D01*
G37*
G54D17*X46107Y14543D02*X46893D01*
G54D18*X46900Y22600D02*X48100D01*
G54D17*X46107Y7457D02*X46893D01*
G54D18*X46900Y35500D02*X48100D01*
G54D15*X30524Y37028D02*Y35256D01*
X28555Y37028D02*Y35256D01*
Y29744D02*Y27972D01*
X30524Y29744D02*Y27972D01*
X36429Y37028D02*Y35256D01*
X34460Y37028D02*Y35256D01*
X32492Y37028D02*Y35256D01*
G54D17*X18607Y38543D02*X19393D01*
G54D15*X32492Y29744D02*Y27972D01*
X34460Y29744D02*Y27972D01*
G54D19*X29362Y32500D02*X34638D01*
G54D20*X28870Y32008D02*X36114D01*
G54D11*G36*
X34754Y32617D02*X35838Y33701D01*
X36822Y32717D01*
X35738Y31633D01*
X34754Y32617D01*
G37*
G54D17*X18607Y31457D02*X19393D01*
X28607Y10457D02*X29393D01*
X28607Y17543D02*X29393D01*
X18607Y10457D02*X19393D01*
X18607Y17543D02*X19393D01*
G54D16*X80200Y34700D02*Y13300D01*
X74600Y34700D02*X80200D01*
X74600Y13300D02*X80200D01*
G54D11*G36*
X77050Y35550D02*Y31550D01*
X81050D01*
Y35550D01*
X77050D01*
G37*
G36*
Y16450D02*Y12450D01*
X81050D01*
Y16450D01*
X77050D01*
G37*
G36*
X75577Y35671D02*X81171Y30077D01*
X79050Y27956D01*
X73456Y33550D01*
X75577Y35671D01*
G37*
G36*
X73456Y14450D02*X79050Y20044D01*
X81171Y17923D01*
X75577Y12329D01*
X73456Y14450D01*
G37*
G54D21*X53000Y7500D03*
X58000D03*
X55500Y4000D03*
X25500Y39500D03*
X63000Y7500D03*
X68000D03*
X60500Y4000D03*
X65500D03*
G54D13*G54D22*M02*
