G04 start of page 8 for group -4079 idx -4079 *
G04 Title: (unknown), topsilk *
G04 Creator: pcb 20110918 *
G04 CreationDate: Sun 25 Aug 2013 03:10:13 AM GMT UTC *
G04 For: railfan *
G04 Format: Gerber/RS-274X *
G04 PCB-Dimensions: 85000 48000 *
G04 PCB-Coordinate-Origin: lower left *
%MOIN*%
%FSLAX25Y25*%
%LNTOPSILK*%
%ADD44C,0.0080*%
%ADD43C,0.0100*%
%ADD42C,0.0001*%
G54D42*G36*
X37500Y40500D02*X39000D01*
Y39000D01*
X37500D01*
Y40500D01*
G37*
G54D43*X500Y47500D02*X84500D01*
Y500D01*
X500D01*
Y47500D01*
X82500Y33000D02*Y11000D01*
X60500D02*X82500D01*
X56500Y37000D02*Y15000D01*
Y37000D02*X78500D01*
X49255Y11393D02*Y10607D01*
X43745Y11393D02*Y10607D01*
X2500Y44000D02*Y4000D01*
X12500D01*
Y44000D01*
X2500D01*
Y34000D02*X12500D01*
Y44000D01*
X38398Y36437D02*Y28563D01*
X26586Y36437D02*Y28563D01*
X21755Y35393D02*Y34607D01*
X16245Y35393D02*Y34607D01*
X26245Y14393D02*Y13607D01*
X31755Y14393D02*Y13607D01*
X16245Y14393D02*Y13607D01*
X21755Y14393D02*Y13607D01*
X51500Y38900D02*Y19200D01*
X43500Y38900D02*Y19200D01*
X51500D01*
X43500Y38900D02*X51500D01*
X43500Y26000D02*X51500D01*
G54D44*X34000Y19000D02*X36000D01*
X36500Y18500D01*
Y17500D01*
X36000Y17000D02*X36500Y17500D01*
X34500Y17000D02*X36000D01*
X34500Y19000D02*Y15000D01*
X35300Y17000D02*X36500Y15000D01*
X37700Y18200D02*X38500Y19000D01*
Y15000D01*
X37700D02*X39200D01*
X17200Y2500D02*X18500D01*
X16500Y3200D02*X17200Y2500D01*
X16500Y5800D02*Y3200D01*
Y5800D02*X17200Y6500D01*
X18500D01*
X19700Y6000D02*X20200Y6500D01*
X21200D01*
X21700Y6000D01*
X21200Y2500D02*X21700Y3000D01*
X20200Y2500D02*X21200D01*
X19700Y3000D02*X20200Y2500D01*
Y4700D02*X21200D01*
X21700Y6000D02*Y5200D01*
Y4200D02*Y3000D01*
Y4200D02*X21200Y4700D01*
X21700Y5200D02*X21200Y4700D01*
X36700Y5500D02*X38000D01*
X36000Y6200D02*X36700Y5500D01*
X36000Y8800D02*Y6200D01*
Y8800D02*X36700Y9500D01*
X38000D01*
X39200Y9000D02*X39700Y9500D01*
X41200D01*
X41700Y9000D01*
Y8000D01*
X39200Y5500D02*X41700Y8000D01*
X39200Y5500D02*X41700D01*
X30500Y43500D02*Y40000D01*
X31000Y39500D01*
X32000D01*
X32500Y40000D01*
Y43500D02*Y40000D01*
X33700Y42700D02*X34500Y43500D01*
Y39500D01*
X33700D02*X35200D01*
X17200Y23500D02*X18500D01*
X16500Y24200D02*X17200Y23500D01*
X16500Y26800D02*Y24200D01*
Y26800D02*X17200Y27500D01*
X18500D01*
X19700Y26700D02*X20500Y27500D01*
Y23500D01*
X19700D02*X21200D01*
X45500Y44500D02*Y40500D01*
X46800Y44500D02*X47500Y43800D01*
Y41200D01*
X46800Y40500D02*X47500Y41200D01*
X45000Y40500D02*X46800D01*
X45000Y44500D02*X46800D01*
X48700Y43700D02*X49500Y44500D01*
Y40500D01*
X48700D02*X50200D01*
M02*
