G04 start of page 6 for group -4063 idx -4063 *
G04 Title: (unknown), componentmask *
G04 Creator: pcb 20110918 *
G04 CreationDate: Sun 25 Aug 2013 03:10:13 AM GMT UTC *
G04 For: railfan *
G04 Format: Gerber/RS-274X *
G04 PCB-Dimensions: 85000 48000 *
G04 PCB-Coordinate-Origin: lower left *
%MOIN*%
%FSLAX25Y25*%
%LNTOPMASK*%
%ADD39R,0.0202X0.0202*%
%ADD38R,0.0300X0.0300*%
%ADD37R,0.0420X0.0420*%
%ADD36R,0.0572X0.0572*%
%ADD35R,0.0290X0.0290*%
%ADD34R,0.0158X0.0158*%
%ADD33C,0.0660*%
%ADD32C,0.0001*%
G54D32*G36*
X4200Y42300D02*Y35700D01*
X10800D01*
Y42300D01*
X4200D01*
G37*
G54D33*X7500Y29000D03*
Y19000D03*
Y9000D03*
G54D34*X36429Y29744D02*Y27972D01*
G54D35*X58800Y34700D02*X64400D01*
G54D32*G36*
X58150Y35350D02*Y31750D01*
X61750D01*
Y35350D01*
X58150D01*
G37*
G36*
X57404Y30077D02*X63423Y36096D01*
X65969Y33550D01*
X59950Y27531D01*
X57404Y30077D01*
G37*
G36*
X59950Y20469D02*X65969Y14450D01*
X63423Y11904D01*
X57404Y17923D01*
X59950Y20469D01*
G37*
G54D35*X58800Y34700D02*Y13300D01*
X64400D01*
G54D32*G36*
X58150Y16250D02*Y12650D01*
X61750D01*
Y16250D01*
X58150D01*
G37*
G54D36*X46107Y14543D02*X46893D01*
G54D37*X46900Y22600D02*X48100D01*
G54D36*X46107Y7457D02*X46893D01*
G54D37*X46900Y35500D02*X48100D01*
G54D34*X30524Y37028D02*Y35256D01*
X28555Y37028D02*Y35256D01*
Y29744D02*Y27972D01*
X30524Y29744D02*Y27972D01*
X36429Y37028D02*Y35256D01*
X34460Y37028D02*Y35256D01*
X32492Y37028D02*Y35256D01*
G54D36*X18607Y38543D02*X19393D01*
G54D34*X32492Y29744D02*Y27972D01*
X34460Y29744D02*Y27972D01*
G54D38*X29362Y32500D02*X34638D01*
G54D39*X28870Y32008D02*X36114D01*
G54D32*G36*
X34329Y32617D02*X35838Y34126D01*
X37247Y32717D01*
X35738Y31208D01*
X34329Y32617D01*
G37*
G54D36*X18607Y31457D02*X19393D01*
X28607Y10457D02*X29393D01*
X28607Y17543D02*X29393D01*
X18607Y10457D02*X19393D01*
X18607Y17543D02*X19393D01*
G54D35*X80200Y34700D02*Y13300D01*
X74600Y34700D02*X80200D01*
X74600Y13300D02*X80200D01*
G54D32*G36*
X77250Y35350D02*Y31750D01*
X80850D01*
Y35350D01*
X77250D01*
G37*
G36*
Y16250D02*Y12650D01*
X80850D01*
Y16250D01*
X77250D01*
G37*
G36*
X75577Y36096D02*X81596Y30077D01*
X79050Y27531D01*
X73031Y33550D01*
X75577Y36096D01*
G37*
G36*
X73031Y14450D02*X79050Y20469D01*
X81596Y17923D01*
X75577Y11904D01*
X73031Y14450D01*
G37*
M02*
